<svg id="Layer_1" data-name="Layer 1" xmlns="http://www.w3.org/2000/svg" viewBox="0 0 512 512"><defs><style>.cls-1{fill:#3eb38a;}.cls-2{fill:#141f38;}.cls-3{fill:#f9c882;}</style></defs><title>chat-bubbles-filled</title><path class="cls-1" d="M229.74,216.62H439.79a65.64,65.64,0,0,1,65.64,65.64v105a65.66,65.66,0,0,1-52.51,64.32v53.83l-52.51-52.51H229.74a65.64,65.64,0,0,1-65.64-65.64v-105A65.64,65.64,0,0,1,229.74,216.62Z"/><path class="cls-2" d="M452.92,512a6.56,6.56,0,0,1-4.64-1.92l-50.59-50.59H229.74a72.29,72.29,0,0,1-72.21-72.21v-105a72.29,72.29,0,0,1,72.21-72.21H439.79A72.29,72.29,0,0,1,512,282.26v105a72.44,72.44,0,0,1-52.51,69.48v48.67a6.56,6.56,0,0,1-6.56,6.56ZM229.74,223.18a59.15,59.15,0,0,0-59.08,59.08v105a59.15,59.15,0,0,0,59.08,59.08H400.41a6.56,6.56,0,0,1,4.64,1.92l41.31,41.31v-38a6.56,6.56,0,0,1,5.26-6.43,59.23,59.23,0,0,0,47.26-57.89v-105a59.15,59.15,0,0,0-59.08-59.08Z"/><path class="cls-3" d="M282.26,6.56H72.21A65.64,65.64,0,0,0,6.56,72.21v105a65.66,65.66,0,0,0,52.51,64.32v53.83l52.51-52.51H282.26a65.64,65.64,0,0,0,65.64-65.64v-105A65.64,65.64,0,0,0,282.26,6.56Z"/><path class="cls-2" d="M59.08,301.95a6.56,6.56,0,0,1-6.56-6.56V246.71A72.44,72.44,0,0,1,0,177.23v-105A72.29,72.29,0,0,1,72.21,0H282.26a72.29,72.29,0,0,1,72.21,72.21v105a72.29,72.29,0,0,1-72.21,72.21H114.31L63.72,300A6.56,6.56,0,0,1,59.08,301.95ZM72.21,13.13A59.15,59.15,0,0,0,13.13,72.21v105a59.23,59.23,0,0,0,47.26,57.89,6.56,6.56,0,0,1,5.26,6.43v38l41.31-41.31a6.56,6.56,0,0,1,4.64-1.92H282.26a59.15,59.15,0,0,0,59.08-59.08v-105a59.15,59.15,0,0,0-59.08-59.08Z"/><path class="cls-2" d="M426.67,315.08H242.87a6.56,6.56,0,0,1,0-13.13H426.67a6.56,6.56,0,0,1,0,13.13Z"/><path class="cls-2" d="M321.64,367.59H242.87a6.56,6.56,0,1,1,0-13.13h78.77a6.56,6.56,0,1,1,0,13.13Z"/><path class="cls-2" d="M269.13,105H85.33a6.56,6.56,0,1,1,0-13.13H269.13a6.56,6.56,0,1,1,0,13.13Z"/><path class="cls-2" d="M164.1,157.54H85.33a6.56,6.56,0,1,1,0-13.13H164.1a6.56,6.56,0,1,1,0,13.13Z"/></svg>